<?xml version="1.0" standalone="no"?>
<!DOCTYPE svg PUBLIC "-//W3C//DTD SVG 20010904//EN"
 "http://www.w3.org/TR/2001/REC-SVG-20010904/DTD/svg10.dtd">
<svg version="1.0" xmlns="http://www.w3.org/2000/svg"
 width="1280.000000pt" height="984.000000pt" viewBox="0 0 1280.000000 984.000000"
 preserveAspectRatio="xMidYMid meet">
<g transform="translate(0.000000,984.000000) scale(0.100000,-0.100000)"
fill="#000000" stroke="none">
<path d="M9820 9769 c0 -38 10 -203 60 -1014 54 -887 71 -1174 68 -1213 l-3
-45 -68 -27 c-166 -68 -261 -146 -368 -303 -35 -51 -66 -95 -71 -98 -8 -5
-145 15 -152 22 -2 2 -220 437 -485 967 -406 812 -501 994 -501 958 0 -4 504
-1260 675 -1680 95 -236 102 -263 60 -254 -11 2 -301 431 -717 1058 -610 921
-740 1112 -716 1049 3 -8 163 -284 355 -614 192 -330 481 -825 641 -1101 l292
-501 -39 -84 c-45 -96 -93 -258 -111 -374 -7 -44 -18 -86 -25 -93 -7 -8 -48
-18 -91 -23 -44 -5 -114 -17 -158 -25 -66 -13 -81 -14 -91 -2 -7 7 -142 168
-301 357 -158 190 -290 339 -292 332 -2 -7 93 -174 212 -372 119 -199 216
-367 216 -375 0 -18 -57 -47 -84 -42 -11 3 -459 275 -995 606 -535 331 -978
602 -983 602 -5 0 -7 -4 -3 -10 3 -5 424 -295 934 -645 511 -349 934 -642 941
-650 9 -10 8 -21 -5 -45 -49 -95 -89 -393 -82 -609 2 -60 0 -66 -23 -77 -187
-92 -342 -164 -351 -164 -6 0 -461 309 -1010 688 -550 378 -1004 689 -1010
691 -6 2 -10 -1 -8 -7 2 -6 432 -335 954 -731 523 -397 951 -725 953 -729 1
-5 -12 -26 -29 -48 -77 -96 -120 -265 -135 -533 l-7 -123 -96 -63 c-53 -34
-141 -94 -195 -134 l-100 -71 -27 23 c-15 12 -413 389 -884 837 -470 448 -861
817 -867 819 -6 2 -9 -1 -7 -7 2 -6 373 -403 824 -883 451 -479 824 -878 828
-886 7 -11 -15 -39 -80 -106 -100 -103 -155 -173 -205 -261 l-33 -59 -147 -47
c-81 -26 -151 -44 -156 -41 -5 3 -120 191 -254 417 l-245 412 -7 403 c-3 221
-9 405 -11 407 -3 3 -7 3 -9 1 -4 -4 -36 -281 -76 -669 -11 -107 -22 -210 -24
-227 -4 -29 23 -75 245 -410 137 -207 248 -382 246 -387 -2 -6 -41 -30 -88
-54 -46 -24 -115 -67 -152 -94 l-68 -51 -30 22 c-37 27 -48 21 -25 -13 9 -14
16 -31 16 -37 0 -7 -30 -43 -67 -80 l-67 -69 -97 0 c-71 0 -100 4 -108 14 -9
11 2 176 48 728 33 392 58 715 55 717 -2 2 -6 2 -9 -1 -3 -3 -28 -178 -56
-389 -27 -211 -68 -508 -90 -659 -23 -151 -43 -292 -46 -312 -3 -21 -11 -42
-17 -47 -8 -7 -49 9 -128 49 -64 32 -137 62 -163 66 -34 5 -49 12 -56 28 -5
11 -120 388 -255 836 -135 448 -250 819 -255 825 -6 5 -9 3 -9 -8 0 -9 92
-409 205 -889 l205 -872 -16 -51 c-23 -67 -69 -110 -148 -134 -72 -22 -251
-45 -269 -34 -7 4 -77 58 -155 121 -134 106 -143 115 -137 140 3 15 60 234
126 486 65 253 116 462 114 464 -3 3 -8 3 -11 -1 -3 -3 -102 -266 -219 -584
l-212 -578 -84 3 c-112 5 -160 14 -170 32 -4 8 -51 184 -104 390 -119 460
-365 1383 -371 1389 -2 2 -7 2 -10 -1 -3 -3 58 -400 136 -882 78 -482 138
-880 135 -886 -3 -5 -32 -10 -63 -10 -97 0 -218 -19 -309 -49 l-87 -28 -138
130 c-76 71 -143 137 -148 146 -5 11 13 194 51 501 54 437 66 575 47 530 -6
-14 -188 -898 -188 -913 0 -23 -41 3 -115 75 -47 44 -88 78 -91 75 -4 -4 27
-45 67 -93 41 -47 85 -99 97 -115 l24 -29 -34 -158 -33 -157 -110 4 c-61 2
-116 7 -123 10 -8 4 -169 363 -358 797 -190 434 -349 793 -354 798 -6 5 -11 8
-14 5 -2 -2 131 -357 295 -789 165 -432 300 -793 302 -804 2 -16 -12 -22 -88
-41 -117 -29 -234 -76 -313 -126 -35 -21 -68 -39 -74 -39 -6 0 -102 57 -215
127 l-204 128 -176 345 c-97 190 -178 347 -180 349 -1 2 -6 2 -9 -2 -4 -3 46
-134 110 -289 64 -156 116 -289 116 -295 0 -17 -11 -16 -35 0 -57 38 -95 57
-95 48 0 -8 73 -68 168 -137 9 -6 122 -288 122 -303 0 -14 -18 -19 -110 -30
l-111 -13 -77 71 c-42 38 -171 164 -287 280 -115 116 -213 211 -217 211 -5 0
-8 -4 -8 -9 0 -5 108 -143 240 -306 132 -163 240 -299 240 -302 0 -3 -21 -31
-46 -62 -26 -31 -64 -91 -85 -133 -22 -43 -42 -78 -46 -78 -3 0 -136 27 -295
61 -249 52 -317 63 -297 45 2 -2 128 -45 279 -96 151 -51 279 -97 284 -101 8
-7 3 -40 -29 -196 -3 -12 -22 -31 -42 -44 -358 -211 -484 -345 -527 -559 -45
-227 -49 -306 -23 -500 21 -153 21 -235 3 -411 -25 -233 0 -317 128 -436 117
-108 281 -176 518 -214 69 -11 88 -11 181 8 113 22 186 51 272 108 161 107
313 302 355 455 7 25 16 83 19 130 l6 85 102 7 c182 12 265 45 330 131 l32 42
183 1 c154 0 196 4 263 22 144 39 198 61 237 99 21 21 38 31 38 24 0 -7 -88
-213 -196 -459 -242 -550 -226 -510 -215 -516 5 -4 219 163 476 369 257 206
473 375 481 375 7 0 22 -17 33 -38 25 -49 84 -82 147 -82 43 -1 66 -11 189
-84 90 -53 140 -88 139 -98 -1 -9 -45 -86 -99 -173 -55 -88 -94 -160 -89 -165
5 -5 91 46 197 116 104 68 192 122 195 120 4 -2 71 -40 148 -85 78 -44 147
-81 154 -81 19 0 7 22 -75 140 -41 60 -75 114 -75 122 0 7 43 41 96 75 l97 63
76 0 77 0 443 -291 c244 -160 447 -287 452 -282 4 4 -89 184 -207 398 -117
215 -214 398 -214 407 0 20 50 107 92 161 52 65 214 131 451 182 42 9 84 14
92 11 10 -4 15 -20 15 -51 0 -25 2 -45 5 -45 3 0 17 12 30 28 l24 27 0 -30 c0
-16 -46 -272 -103 -568 -56 -295 -99 -537 -95 -537 4 0 143 144 310 320 167
176 308 319 313 317 6 -2 14 -19 18 -38 7 -37 223 -662 236 -686 6 -9 47 176
113 509 l104 523 51 50 c29 28 81 93 116 145 44 66 110 142 218 250 157 156
457 432 489 449 12 7 72 -17 238 -95 123 -57 225 -104 228 -104 3 0 5 23 5 50
0 39 4 50 16 50 8 0 191 -156 407 -346 215 -190 393 -341 395 -336 1 5 -85
254 -191 553 -123 344 -191 548 -185 554 5 6 46 10 91 10 l82 0 1 320 c1 298
17 612 32 626 4 3 36 18 72 32 169 66 371 173 495 262 33 23 91 75 127 114 97
102 100 115 104 441 1 146 6 292 11 324 l8 60 99 28 c239 69 289 123 291 321
1 59 4 110 7 113 4 3 35 -13 70 -35 164 -103 293 -137 351 -91 15 12 27 28 27
36 0 8 8 14 18 14 9 0 305 -131 657 -290 351 -160 646 -288 654 -285 8 3 11 9
5 14 -5 4 -243 171 -529 371 -286 200 -530 373 -543 384 -23 20 -23 21 -4 36
29 24 34 51 17 106 -8 27 -15 66 -15 87 0 56 25 64 140 43 84 -16 94 -16 116
-1 13 8 24 22 24 31 0 8 6 17 14 20 7 3 221 -83 474 -190 253 -108 465 -196
471 -196 6 0 11 3 11 8 0 4 -151 153 -335 331 -271 261 -333 327 -323 337 13
12 226 65 417 105 82 17 128 19 326 17 223 -3 232 -2 282 21 29 13 68 41 87
61 61 68 70 146 35 320 -12 64 -24 179 -29 295 -13 266 -39 349 -154 490 -44
53 -54 71 -45 81 6 8 19 14 28 14 23 0 152 63 206 100 77 53 205 184 215 221
6 19 10 95 10 169 0 74 4 140 8 146 4 6 88 71 187 144 99 73 174 135 167 138
-7 2 -91 -42 -187 -97 -96 -56 -180 -101 -188 -101 -15 0 -87 71 -87 86 0 6
90 78 200 159 180 134 232 179 184 161 -9 -4 -122 -67 -251 -141 -186 -107
-238 -132 -256 -126 -11 4 -23 13 -24 18 -2 6 60 90 138 187 78 98 138 180
135 184 -7 6 -34 -19 -267 -246 l-126 -122 -49 0 c-27 0 -80 -12 -119 -26 -38
-13 -78 -27 -88 -31 -21 -6 -57 23 -57 46 0 9 66 82 147 163 81 81 144 150
141 154 -4 3 -77 -49 -163 -117 -85 -68 -166 -131 -180 -139 -57 -34 -44 5 75
230 65 124 114 227 108 229 -6 2 -14 -3 -19 -10 -4 -8 -70 -104 -147 -214
-110 -158 -143 -201 -163 -203 -51 -5 -52 1 -26 194 15 107 21 183 16 189 -5
5 -9 7 -9 5 0 -10 -99 -382 -102 -384 -2 -1 -30 -15 -63 -31 -108 -51 -311
-275 -351 -386 -7 -23 -14 -70 -14 -105 0 -44 -4 -64 -12 -65 -40 -4 -159 4
-198 12 -55 12 -241 86 -257 102 -8 8 -15 129 -22 387 -6 206 -16 515 -21 685
-5 171 -12 424 -16 563 -9 331 -21 337 -44 22 -6 -80 -28 -381 -50 -670 -22
-289 -47 -622 -56 -740 -17 -232 -21 -244 -74 -238 l-25 3 -185 1107 c-102
609 -188 1110 -192 1114 -5 4 -8 -13 -8 -37z m-7136 -6641 c53 -61 96 -117 96
-124 0 -14 -63 -64 -83 -64 -16 0 -138 48 -150 59 -15 15 20 241 37 241 3 0
48 -50 100 -112z m1410 13 c48 -49 83 -91 78 -95 -10 -6 -212 20 -221 29 -5 6
18 114 30 138 6 9 13 17 17 17 4 0 47 -40 96 -89z m-2724 -237 c72 -53 130
-100 130 -106 0 -11 -145 -3 -177 9 -26 10 -110 193 -88 193 3 0 64 -43 135
-96z"/>
</g>
</svg>
